<svg width="25" height="24" viewBox="0 0 25 24" fill="none" xmlns="http://www.w3.org/2000/svg">
<g clip-path="url(#clip0_52_22167)">
<path d="M12.332 14C13.992 14 15.322 12.66 15.322 11L15.332 5C15.332 3.34 13.992 2 12.332 2C10.672 2 9.33203 3.34 9.33203 5V11C9.33203 12.66 10.672 14 12.332 14ZM17.632 11C17.632 14 15.092 16.1 12.332 16.1C9.57203 16.1 7.03203 14 7.03203 11H5.33203C5.33203 14.41 8.05203 17.23 11.332 17.72V21H13.332V17.72C16.612 17.24 19.332 14.42 19.332 11H17.632Z" fill="#2BF7A8"/>
</g>
<defs>
<clipPath id="clip0_52_22167">
<rect width="24" height="24" fill="white" transform="translate(0.333008)"/>
</clipPath>
</defs>
</svg>
